<svg height="512pt" viewBox="0 0 512 512" width="512pt" xmlns="http://www.w3.org/2000/svg"><path d="m373.332031 106.667969-128 149.332031 10.667969 256h256v-256zm0 0" fill="#32393f"/><path d="m256 234.667969-256 21.332031v256h256v-79.285156l8.5-53.382813-8.5-59.046875zm0 0" fill="#fdcb02"/><path d="m79.285156 256c-4.402344 8.609375-6.902344 18.355469-6.902344 28.691406 0 34.859375 28.257813 63.117188 63.117188 63.117188s63.117188-28.257813 63.117188-63.117188c0-10.335937-2.5-20.082031-6.902344-28.691406h64.285156l10.667969-256h-266.667969v256zm0 0" fill="#0ac5cc"/><path d="m284.691406 313.382812c-10.335937 0-20.082031 2.5-28.691406 6.902344v112.429688c8.609375 4.402344 18.355469 6.902344 28.691406 6.902344 34.859375 0 63.117188-28.257813 63.117188-63.117188s-28.257813-63.117188-63.117188-63.117188zm0 0" fill="#fdae02"/><path d="m256 0v79.285156l-21.332031 57.953125 21.332031 54.476563v64.285156h256v-256zm0 0" fill="#fd4800"/><path d="m164.191406 135.5c0 34.859375 28.257813 63.117188 63.117188 63.117188 10.335937 0 20.082031-2.5 28.691406-6.902344v-112.429688c-8.609375-4.402344-18.355469-6.902344-28.691406-6.902344-34.859375 0-63.117188 28.257813-63.117188 63.117188zm0 0" fill="#fd6100"/><path d="m432.714844 256c4.402344-8.609375 6.902344-18.355469 6.902344-28.691406 0-34.859375-28.257813-63.117188-63.117188-63.117188s-63.117188 28.257813-63.117188 63.117188c0 10.335937 2.5 20.082031 6.902344 28.691406l53.046875 21.332031zm0 0" fill="#32393f"/></svg>